<svg width="10333" height="1290" viewBox="0 0 10333 1290" fill="none" xmlns="http://www.w3.org/2000/svg">
<path fill-rule="evenodd" clip-rule="evenodd" d="M801.785 131.24H652.431V539.61H375.676V131.24H226.389H171.469V644.194V644.2V1158.42V1158.51H226.389V1158.42H322.545L373.886 1158.46L524.008 847.926H327.621V729.928H709.822L501.569 1158.42H801.785V1158.51H856.706V131.24H856.638H801.785Z" fill="white"/>
<path fill-rule="evenodd" clip-rule="evenodd" d="M48.5765 48.5765H979.597V1241.15H48.5765V48.5765ZM0 1289.73V0H1028.17V1289.73H436.471L460.572 1241.16L333.33 1241.16C332.847 1242.59 317.875 1275.86 311.038 1289.73H0Z" fill="white"/>
<path d="M1406.16 300.787H1581.8V988.787H1406.16V300.787Z" fill="white"/>
<path fill-rule="evenodd" clip-rule="evenodd" d="M2300.15 300.787H2124.38L2124.38 561.567H1614.35L1750.95 703.15L2124.38 703.15L2124.38 988.787H2300.15V300.787Z" fill="white"/>
<path fill-rule="evenodd" clip-rule="evenodd" d="M3210.34 300.785V462.554L2590.32 462.554V300.785L3210.34 300.785ZM3065.6 723.336V561.567L2590.32 561.567V300.785H2414.68V988.785H2590.32V723.336H3065.6ZM3210.34 988.786V827.017H2590.32V988.786H3210.34Z" fill="white"/>
<path fill-rule="evenodd" clip-rule="evenodd" d="M5152.27 447.037V300.785H4790.83H4615.19L4252.92 300.785L4252.92 447.037L4615.19 447.037V988.785H4790.83V447.037L5152.27 447.037Z" fill="white"/>
<path fill-rule="evenodd" clip-rule="evenodd" d="M6739.74 300.785H6564.1V988.785H6739.74V300.785ZM7353.59 988.786V827.017L6739.74 827.017V988.786H7353.59Z" fill="white"/>
<path fill-rule="evenodd" clip-rule="evenodd" d="M4988.37 971.006L5378.78 302.369H5490.91H5490.91H5603.03L5993.45 971.006H5794.74L5490.91 421.636L5320.63 729.519L5588.53 729.519L5658.58 875.771H5239.75L5187.08 971.006H4988.37Z" fill="white"/>
<path fill-rule="evenodd" clip-rule="evenodd" d="M7400.14 971.006L7790.56 302.369H7902.68V421.636L7732.41 729.519L8000.3 729.519L8070.36 875.771H7651.52L7598.85 971.006H7400.14ZM8014.81 302.369L8405.23 971.006H8206.52L7902.68 421.636V302.369H8014.81Z" fill="white"/>
<path fill-rule="evenodd" clip-rule="evenodd" d="M9160.92 300.785V300.8C9224.28 300.062 9350.98 326.608 9350.98 438.697V480.819H9172.05L9172.05 445.663H9160.92L9160.92 423.029V445.663L8627.55 445.663V988.785H8451.91V300.785L8627.55 300.785L9160.92 300.785ZM8650.76 571.591L8787.4 717.98L9160.93 717.98V717.978H9172.05V808.75H9350.98V766.628C9350.98 699.514 9305.56 663.068 9255.51 644.784C9305.56 626.5 9350.98 590.054 9350.98 522.941V480.819H9172.05V571.591H9160.92V571.592L8650.76 571.591ZM8650.76 842.534L8787.4 988.785H9160.93V988.77C9224.28 989.508 9350.98 962.963 9350.98 850.874V808.752H9172.05L9172.05 842.534H9160.93H8650.76Z" fill="white"/>
<path fill-rule="evenodd" clip-rule="evenodd" d="M10297.7 300.785V445.663L9639.23 445.663V300.785L10297.7 300.785ZM10142.5 570.905V570.92C10205.9 570.182 10332.6 596.727 10332.6 708.817V763.504H10332.6V838.445C10332.6 950.534 10194.5 977.08 10131.1 976.341V976.428H9441.34L9441.34 831.549H10131.1V831.547H10153.7V762.884H10153.7V708.817H10142.5V708.78H9627.83V570.905L10142.5 570.905ZM9627.83 708.778C9564.48 709.517 9437.77 680.387 9437.77 568.298L9437.77 513.61H9437.77L9437.77 438.697C9437.77 326.607 9575.88 300.062 9639.23 300.8L9639.23 445.595H9616.71V514.257H9616.7L9616.7 570.875H9627.83V708.778Z" fill="white"/>
<path fill-rule="evenodd" clip-rule="evenodd" d="M4008.34 300.785V300.791C4072.01 300.331 4197.44 327.172 4197.44 438.697V535.612H4018.51V446.173H4008.34V447.037L3488.15 447.037V988.785H3312.52V300.785L3488.15 300.785L3488.15 300.785H4008.34ZM3648 770.438L3511.36 624.187H4018.51V535.612H4197.44V632.527C4197.44 736.783 4087.82 767.034 4021.53 770.158V770.438L3648 770.438Z" fill="white"/>
</svg>
