<svg width="8927" height="688" viewBox="0 0 8927 688" fill="none" xmlns="http://www.w3.org/2000/svg">
<rect width="175.639" height="688" fill="white"/>
<path fill-rule="evenodd" clip-rule="evenodd" d="M893.991 0.00195312H718.214V688.002H893.991V0.00195312ZM208.188 260.78L344.788 402.363L718.214 402.363V260.78L208.188 260.78Z" fill="white"/>
<path fill-rule="evenodd" clip-rule="evenodd" d="M1804.18 2.77907e-05V161.769L1184.16 161.769V0L1804.18 2.77907e-05ZM1659.44 422.55V260.781L1184.15 260.781L1184.15 2.77907e-05H1008.52V688H1184.15L1184.15 422.55L1659.44 422.55ZM1804.18 688.001V526.232H1184.16V688.001H1804.18Z" fill="white"/>
<path fill-rule="evenodd" clip-rule="evenodd" d="M3746.09 146.252V4.03102e-05H3384.65H3209.01L2846.75 0L2846.75 146.252L3209.01 146.252V688H3384.65V146.252L3746.09 146.252Z" fill="white"/>
<path fill-rule="evenodd" clip-rule="evenodd" d="M5333.58 0H5157.94V688H5333.58V0ZM5333.58 688.001H5947.42V526.232H5333.58V688.001Z" fill="white"/>
<path fill-rule="evenodd" clip-rule="evenodd" d="M3582.2 670.221L3972.62 1.58398H4084.74H4084.75H4196.87L4587.29 670.221H4388.58L4084.75 120.851L3914.47 428.735L4182.36 428.735L4252.42 574.986H3833.58L3780.91 670.221H3582.2Z" fill="white"/>
<path fill-rule="evenodd" clip-rule="evenodd" d="M5993.98 670.221L6384.39 1.58398H6496.52V120.851L6326.24 428.735L6594.14 428.735L6664.19 574.986H6245.36L6192.69 670.221H5993.98ZM6608.65 1.58398L6999.06 670.221H6800.35L6496.52 120.851V1.58398H6608.65Z" fill="white"/>
<path fill-rule="evenodd" clip-rule="evenodd" d="M7754.76 2.39067e-05V0.0148527C7818.11 -0.723105 7944.82 25.8229 7944.82 137.911V180.034H7765.89L7765.89 144.878H7754.76L7754.76 103.489V144.878L7221.39 144.878V688H7045.75V2.39067e-05L7221.39 0L7221.39 2.39067e-05H7754.76ZM7244.6 270.808L7381.24 417.196L7754.76 417.197V417.192H7765.89V507.964H7944.82V465.842C7944.82 398.729 7899.4 362.284 7849.35 343.999C7899.4 325.715 7944.82 289.269 7944.82 222.157V180.035H7765.89V270.807H7754.76V270.808L7244.6 270.808ZM7244.6 541.747L7381.24 687.999H7754.76V687.984C7818.12 688.721 7944.82 662.175 7944.82 550.087V507.965H7765.89L7765.89 541.747L7754.76 541.747L7754.76 541.747H7244.6Z" fill="white"/>
<path fill-rule="evenodd" clip-rule="evenodd" d="M8891.54 2.95141e-05V144.878L8233.07 144.878V0L8891.54 2.95141e-05ZM8736.36 270.12V270.134C8799.72 269.396 8926.42 295.941 8926.42 408.031V462.718L8926.42 537.66C8926.42 649.75 8788.32 676.295 8724.97 675.557V675.642L8035.18 675.642L8035.18 530.764L8724.97 530.764V530.762H8747.49V462.1L8747.49 408.031H8736.36V407.994L8221.67 407.994V270.119L8736.36 270.12ZM8221.67 407.993C8158.31 408.732 8031.61 379.602 8031.61 267.513L8031.61 212.825H8031.61L8031.61 137.911C8031.61 25.822 8169.71 -0.72352 8233.07 0.0148761L8233.07 144.81H8210.54V213.472H8210.54L8210.54 270.09H8221.67V407.993Z" fill="white"/>
<path fill-rule="evenodd" clip-rule="evenodd" d="M2602.18 2.33158e-05V0.00579883C2665.84 -0.454051 2791.28 26.3864 2791.28 137.911V234.826V331.741C2791.28 435.997 2681.66 466.248 2615.36 469.373V469.652L2241.84 469.652L2105.2 323.401L2612.34 323.401V234.826V145.387H2602.18V146.252L2081.99 146.252L2081.99 688H1906.35V2.33158e-05L2081.99 0L2602.18 2.33158e-05Z" fill="white"/>
</svg>
