<svg width="8927" height="688" viewBox="0 0 8927 688" fill="none" xmlns="http://www.w3.org/2000/svg">
<rect y="0.00195312" width="175.639" height="688" fill="black"/>
<path fill-rule="evenodd" clip-rule="evenodd" d="M893.991 0H718.214V688H893.991V0ZM208.188 260.778L344.788 402.361L718.214 402.361V260.778L208.188 260.778Z" fill="black"/>
<path fill-rule="evenodd" clip-rule="evenodd" d="M1804.18 0.00198092V161.771L1184.16 161.771V0.00195312L1804.18 0.00198092ZM1659.44 422.552V260.783L1184.15 260.783L1184.15 0.00198092H1008.52V688.002H1184.15L1184.15 422.552L1659.44 422.552ZM1804.18 688.003V526.233H1184.16V688.003H1804.18Z" fill="black"/>
<path fill-rule="evenodd" clip-rule="evenodd" d="M3746.09 146.254V0.00199344H3384.65H3209.01L2846.75 0.00195312L2846.75 146.253L3209.01 146.253V688.002H3384.65V146.253L3746.09 146.254Z" fill="black"/>
<path fill-rule="evenodd" clip-rule="evenodd" d="M5333.58 0.00195312H5157.94V688.002H5333.58V0.00195312ZM5333.58 688.003H5947.42V526.233H5333.58V688.003Z" fill="black"/>
<path fill-rule="evenodd" clip-rule="evenodd" d="M3582.2 670.221L3972.62 1.58398H4084.74H4084.75H4196.87L4587.29 670.221H4388.58L4084.75 120.851L3914.47 428.735L4182.36 428.735L4252.42 574.986H3833.58L3780.91 670.221H3582.2Z" fill="black"/>
<path fill-rule="evenodd" clip-rule="evenodd" d="M5993.98 670.221L6384.39 1.58398H6496.52V120.851L6326.24 428.735L6594.14 428.735L6664.19 574.986H6245.36L6192.69 670.221H5993.98ZM6608.65 1.58398L6999.06 670.221H6800.35L6496.52 120.851V1.58398H6608.65Z" fill="black"/>
<path fill-rule="evenodd" clip-rule="evenodd" d="M7754.76 0.00197703V0.0168058C7818.11 -0.721152 7944.82 25.8249 7944.82 137.913V180.036H7765.89L7765.89 144.88H7754.76L7754.76 103.491V144.88L7221.39 144.88V688.002H7045.75V0.00197703L7221.39 0.00195312L7221.39 0.00197703H7754.76ZM7244.6 270.81L7381.24 417.198L7754.76 417.198V417.194H7765.89V507.966H7944.82V465.844C7944.82 398.731 7899.4 362.286 7849.35 344.001C7899.4 325.717 7944.82 289.271 7944.82 222.159V180.037H7765.89V270.809H7754.76V270.81L7244.6 270.81ZM7244.6 541.749L7381.24 688.001H7754.76V687.986C7818.12 688.723 7944.82 662.177 7944.82 550.089V507.967H7765.89L7765.89 541.749L7754.76 541.749L7754.76 541.749H7244.6Z" fill="black"/>
<path fill-rule="evenodd" clip-rule="evenodd" d="M8891.54 0.00198264V144.88L8233.07 144.88V0.00195312L8891.54 0.00198264ZM8736.36 270.121V270.136C8799.72 269.398 8926.42 295.943 8926.42 408.033V462.72L8926.42 537.662C8926.42 649.752 8788.32 676.297 8724.97 675.559V675.644L8035.18 675.644L8035.18 530.766L8724.97 530.766V530.764H8747.49V462.102L8747.49 408.033H8736.36V407.996L8221.67 407.996V270.121L8736.36 270.121ZM8221.67 407.995C8158.31 408.734 8031.61 379.604 8031.61 267.515L8031.61 212.827H8031.61L8031.61 137.913C8031.61 25.824 8169.71 -0.721567 8233.07 0.0168292L8233.07 144.812H8210.54V213.474H8210.54L8210.54 270.092L8221.67 270.092V407.995Z" fill="black"/>
<path fill-rule="evenodd" clip-rule="evenodd" d="M2602.18 0.00197644V0.00775195C2665.84 -0.452098 2791.28 26.3883 2791.28 137.913V234.828V331.743C2791.28 435.999 2681.66 466.25 2615.36 469.375V469.654L2241.84 469.654L2105.2 323.403L2612.34 323.403V234.828V145.389H2602.18V146.253L2081.99 146.253L2081.99 688.002H1906.35V0.00197644L2081.99 0.00195312L2602.18 0.00197644Z" fill="black"/>
</svg>
