<svg width="4830" height="3335" viewBox="0 0 4830 3335" fill="none" xmlns="http://www.w3.org/2000/svg">
<path fill-rule="evenodd" clip-rule="evenodd" d="M2903.85 257.402H2610.89V1058.41H2068.05V257.402H1775.22H1667.5V1263.55V1263.56V2272.18V2272.36H1775.22V2272.18H1963.83L2064.54 2272.27L2359 1663.16H1973.79V1431.71H2723.46L2314.98 2272.18H2903.85V2272.36H3011.57V257.402H3011.44H2903.85Z" fill="black"/>
<path fill-rule="evenodd" clip-rule="evenodd" d="M1426.45 95.2815H3252.62V2434.48H2234.57H1426.45V95.2815ZM2187.29 2529.76L2234.57 2434.48L1984.99 2434.49C1984.04 2437.28 1954.67 2502.58 1941.26 2529.76L1331.17 2529.76V0H3347.9V2529.76L2187.29 2529.76Z" fill="black"/>
<path d="M0 2954.29H97.1273V3334.75H0V2954.29Z" fill="black"/>
<path fill-rule="evenodd" clip-rule="evenodd" d="M494.369 2954.29H397.166V3098.51L115.125 3098.51L190.664 3176.8L397.166 3176.8V3334.75H494.369V2954.29Z" fill="black"/>
<path fill-rule="evenodd" clip-rule="evenodd" d="M997.701 2954.3V3043.75L654.832 3043.75V2954.3L997.701 2954.3ZM917.658 3187.96V3098.51L654.83 3098.51V2954.3H557.703V3334.76H654.83V3187.96L917.658 3187.96ZM997.701 3334.75V3245.3H654.832V3334.75H997.701Z" fill="black"/>
<path fill-rule="evenodd" clip-rule="evenodd" d="M2071.57 3035.17V2954.3H1871.69H1774.56L1574.23 2954.3L1574.23 3035.17L1774.56 3035.17V3334.76H1871.69V3035.17L2071.57 3035.17Z" fill="black"/>
<path fill-rule="evenodd" clip-rule="evenodd" d="M1980.93 3324.93L2196.83 2955.18H2258.83H2258.83H2320.84L2536.73 3324.93H2426.85L2258.83 3021.13L2164.67 3191.39L2312.81 3191.39L2351.55 3272.26H2119.94L2090.81 3324.93H1980.93Z" fill="black"/>
<path fill-rule="evenodd" clip-rule="evenodd" d="M2842.26 2954.45H2745.13V3334.91H2842.26V2954.45ZM3181.71 3334.91V3245.45H2842.26V3334.91H3181.71Z" fill="black"/>
<path fill-rule="evenodd" clip-rule="evenodd" d="M3207.45 3325.07L3423.35 2955.32H3485.36V3021.28L3391.19 3191.53L3539.34 3191.53L3578.08 3272.41H3346.47L3317.34 3325.07H3207.45ZM3547.36 2955.32L3763.26 3325.07H3653.37L3485.36 3021.28V2955.32H3547.36Z" fill="black"/>
<path fill-rule="evenodd" clip-rule="evenodd" d="M4181.16 2954.45V2954.46C4216.19 2954.05 4286.26 2968.73 4286.26 3030.71V3054.01H4187.31L4187.31 3034.56H4181.16L4181.16 3016.25V3034.56L3886.21 3034.56V3334.91H3789.08V2954.45L3886.21 2954.45L3886.21 2954.45H4181.16ZM3899.04 3104.2L3974.6 3185.15L4181.16 3185.16V3185.15H4187.31V3235.35H4286.26V3212.06C4286.26 3174.94 4261.14 3154.79 4233.46 3144.68C4261.14 3134.57 4286.26 3114.41 4286.26 3077.3V3054.01H4187.31V3104.2H4181.16L3899.04 3104.2ZM3899.04 3254.03L3974.6 3334.91H4181.16V3334.9C4216.19 3335.31 4286.26 3320.63 4286.26 3258.64V3235.35H4187.31L4187.31 3254.03H4181.16H3899.04Z" fill="black"/>
<path fill-rule="evenodd" clip-rule="evenodd" d="M4809.79 2954.45V3034.56L4445.65 3034.56V2954.45L4809.79 2954.45ZM4723.98 3103.82V3103.83C4759.01 3103.42 4829.08 3118.1 4829.08 3180.09V3210.33H4829.08V3251.77C4829.08 3313.76 4752.71 3328.44 4717.67 3328.03V3328.07L4336.23 3328.07L4336.23 3247.96L4717.67 3247.96V3247.96H4730.13V3209.99H4730.13V3180.09H4723.98V3180.07H4439.35V3103.82L4723.98 3103.82ZM4439.35 3180.07C4404.32 3180.48 4334.25 3164.37 4334.25 3102.38L4334.25 3072.14H4334.25L4334.25 3030.71C4334.25 2968.73 4410.62 2954.05 4445.65 2954.46L4445.65 3034.53H4433.2V3072.5H4433.2L4433.2 3103.81H4439.35V3180.07Z" fill="black"/>
<path fill-rule="evenodd" clip-rule="evenodd" d="M1438.98 2954.3V2954.3C1474.19 2954.04 1543.55 2968.89 1543.55 3030.56V3084.15V3084.15V3137.74C1543.55 3195.4 1482.94 3212.13 1446.27 3213.85V3214.01L1239.72 3214.01L1164.16 3133.13H1444.6V3084.15V3084.15V3034.69H1438.98V3035.17L1151.32 3035.17V3334.76H1054.2V2954.3L1151.32 2954.3L1151.32 2954.3H1438.98Z" fill="black"/>
</svg>
