<svg width="145" height="145" viewBox="0 0 145 145" fill="none" xmlns="http://www.w3.org/2000/svg">
<path d="M61.4113 36.124L86.6892 75.4546L111.976 36.1295L134.703 0.784241C133.239 0.284941 131.67 0.0142516 130.038 0.014075L14.4626 0.00156389C6.4839 0.00070019 0.0149387 6.46826 0.014075 14.4469L0.00156389 130.023C0.00070019 138.001 6.46826 144.47 14.4469 144.471L46.9526 144.475L46.9643 36.1225L61.4113 36.124ZM32.5095 108.356L18.0626 108.354L18.0704 36.1193L32.5174 36.1209L32.5095 108.356Z" fill="url(#paint0_linear_20_4910)"/>
<path d="M126.422 36.1295L126.415 108.364L111.968 108.363L111.973 58.6009L93.9113 86.6903L79.4644 86.6887L61.4088 58.5954L61.3995 144.475L130.022 144.482C138.001 144.483 144.47 138.015 144.471 130.037L144.483 14.461C144.484 12.6942 144.166 11.0017 143.586 9.43663L126.422 36.1295Z" fill="url(#paint1_linear_20_4910)"/>
<path d="M32.5173 36.1188L18.0703 36.1172L18.0625 108.352L32.5095 108.353L32.5173 36.1188Z" fill="black"/>
<path d="M79.4651 86.687L93.912 86.6886L111.974 58.5992L111.968 108.361L126.415 108.363L126.423 36.1278L143.587 9.43494C142.083 5.37844 138.809 2.18134 134.703 0.780982L111.976 36.1262L86.6898 75.4513L61.4119 36.1208L46.9649 36.1192L46.9532 144.471L61.4002 144.473L61.4095 58.5937L79.4651 86.687Z" fill="black"/>
<defs>
<linearGradient id="paint0_linear_20_4910" x1="67.3592" y1="0.00728995" x2="67.3435" y2="144.477" gradientUnits="userSpaceOnUse">
<stop stop-color="#FF9165"/>
<stop offset="0.2" stop-color="#FF7842"/>
<stop offset="1" stop-color="#FF5F1F"/>
</linearGradient>
<linearGradient id="paint1_linear_20_4910" x1="102.949" y1="9.43223" x2="102.934" y2="144.479" gradientUnits="userSpaceOnUse">
<stop stop-color="white"/>
<stop offset="1" stop-color="#D7D7D7"/>
</linearGradient>
</defs>
</svg>
