<svg width="146" height="185" viewBox="0 0 146 185" fill="none" xmlns="http://www.w3.org/2000/svg">
<path d="M7.63877 152.448L7.63616 176.505L1.8216 176.504L1.82421 152.447L7.63877 152.448ZM11.289 152.448L18.4897 152.449L24.5963 167.344L24.8782 167.344L30.988 152.45L38.1887 152.451L38.1861 176.508L32.5242 176.507L32.5258 161.73L32.3261 161.73L26.5452 176.354L22.9273 176.354L17.1496 161.646L16.9499 161.646L16.9483 176.506L11.2864 176.505L11.289 152.448Z" fill="url(#paint0_linear_4_8697)"/>
<path d="M47.5804 176.509L40.5821 152.451L47.0074 152.452L50.6354 168.216L50.8351 168.216L54.9834 152.453L60.2223 152.453L64.3672 168.253L64.5669 168.253L68.21 152.454L74.6236 152.455L67.6318 176.511L62.0287 176.511L57.6958 161.921L57.5078 161.921L53.1718 176.51L47.5804 176.509ZM80.1067 176.818C78.9555 176.818 77.9336 176.626 77.0409 176.242C76.156 175.85 75.4552 175.263 74.9384 174.48C74.4295 173.689 74.1751 172.698 74.1752 171.508C74.1753 170.506 74.3516 169.66 74.7041 168.971C75.0566 168.282 75.5421 167.722 76.1608 167.291C76.7795 166.86 77.4922 166.536 78.2988 166.316C79.1054 166.089 79.9669 165.937 80.8831 165.859C81.909 165.765 82.7352 165.667 83.3617 165.565C83.9882 165.456 84.4424 165.303 84.7243 165.107C85.0141 164.904 85.159 164.618 85.1591 164.25L85.1591 164.191C85.1591 163.588 84.9517 163.122 84.5366 162.793C84.1216 162.464 83.5617 162.3 82.8569 162.3C82.0973 162.299 81.4865 162.464 81.0244 162.793C80.5623 163.122 80.2686 163.576 80.1433 164.155L74.8456 163.967C75.0023 162.87 75.4057 161.891 76.0558 161.03C76.7137 160.161 77.6143 159.48 78.7577 158.987C79.909 158.485 81.2912 158.235 82.9044 158.235C84.0555 158.235 85.1166 158.372 86.0876 158.647C87.0587 158.913 87.9044 159.305 88.6248 159.822C89.3452 160.331 89.9011 160.957 90.2926 161.701C90.6919 162.445 90.8915 163.295 90.8914 164.25L90.8901 176.514L85.4866 176.513L85.4869 173.999L85.3459 173.999C85.0248 174.61 84.6136 175.127 84.1124 175.55C83.619 175.973 83.0355 176.29 82.362 176.501C81.6964 176.712 80.9446 176.818 80.1067 176.818ZM81.8808 173.059C82.4995 173.059 83.0555 172.934 83.5489 172.684C84.0501 172.433 84.4495 172.089 84.7471 171.65C85.0448 171.204 85.1936 170.687 85.1937 170.099L85.1938 168.384C85.0294 168.471 84.8297 168.549 84.5947 168.619C84.3676 168.69 84.117 168.756 83.8429 168.819C83.5688 168.882 83.2869 168.936 82.9972 168.983C82.7074 169.03 82.4294 169.073 82.1631 169.112C81.6228 169.199 81.1607 169.332 80.777 169.512C80.4011 169.692 80.1113 169.927 79.9077 170.216C79.7119 170.498 79.614 170.835 79.6139 171.227C79.6138 171.822 79.8252 172.276 80.2481 172.589C80.6788 172.903 81.223 173.059 81.8808 173.059ZM100.149 152.458L100.146 176.515L94.4023 176.514L94.4049 152.457L100.149 152.458ZM109.549 152.459L109.547 176.516L103.802 176.515L103.805 152.458L109.549 152.459ZM121.637 176.858C119.749 176.858 118.121 176.485 116.75 175.741C115.388 174.989 114.338 173.92 113.602 172.534C112.874 171.14 112.51 169.484 112.511 167.565C112.511 165.701 112.879 164.073 113.615 162.679C114.352 161.277 115.389 160.189 116.729 159.414C118.068 158.631 119.646 158.239 121.463 158.239C122.747 158.24 123.921 158.439 124.986 158.839C126.051 159.238 126.971 159.83 127.747 160.613C128.522 161.396 129.125 162.363 129.555 163.514C129.986 164.658 130.201 165.97 130.201 167.45L130.201 168.883L114.519 168.881L114.519 165.545L124.856 165.546C124.849 164.935 124.704 164.391 124.422 163.913C124.14 163.436 123.753 163.064 123.259 162.797C122.774 162.523 122.214 162.386 121.58 162.386C120.937 162.386 120.362 162.531 119.853 162.82C119.344 163.102 118.94 163.49 118.643 163.983C118.345 164.469 118.188 165.021 118.173 165.639L118.172 169.034C118.172 169.77 118.317 170.416 118.607 170.972C118.896 171.521 119.307 171.947 119.84 172.253C120.372 172.558 121.007 172.711 121.743 172.711C122.252 172.711 122.714 172.641 123.129 172.5C123.544 172.359 123.9 172.152 124.198 171.877C124.496 171.603 124.719 171.267 124.868 170.867L130.142 171.021C129.922 172.203 129.441 173.233 128.697 174.11C127.96 174.979 126.993 175.656 125.795 176.142C124.597 176.619 123.211 176.858 121.637 176.858ZM143.32 158.477L143.319 162.705L131.937 162.704L131.937 158.475L143.32 158.477ZM134.323 154.153L140.067 154.154L140.065 170.845C140.065 171.198 140.12 171.484 140.229 171.703C140.347 171.914 140.515 172.067 140.734 172.161C140.953 172.247 141.216 172.29 141.521 172.29C141.74 172.29 141.971 172.271 142.214 172.232C142.465 172.185 142.653 172.146 142.778 172.114L143.647 176.261C143.373 176.339 142.985 176.437 142.484 176.555C141.991 176.672 141.399 176.746 140.71 176.778C139.363 176.84 138.208 176.683 137.245 176.307C136.29 175.923 135.558 175.328 135.049 174.522C134.548 173.715 134.305 172.701 134.321 171.479L134.323 154.153Z" fill="white"/>
<path d="M61.4156 36.124L86.6935 75.4546L111.98 36.1295L134.707 0.784241C133.244 0.284941 131.675 0.0142516 130.042 0.014075L14.4669 0.00156389C6.48823 0.00070019 0.0192724 6.46826 0.0184087 14.4469L0.00589762 130.023C0.00503393 138.001 6.47259 144.47 14.4513 144.471L46.9569 144.475L46.9686 36.1225L61.4156 36.124ZM32.5139 108.356L18.0669 108.354L18.0747 36.1193L32.5217 36.1209L32.5139 108.356Z" fill="url(#paint1_linear_4_8697)"/>
<path d="M126.427 36.1295L126.419 108.364L111.972 108.363L111.977 58.6009L93.9157 86.6903L79.4687 86.6887L61.4131 58.5954L61.4038 144.475L130.027 144.482C138.005 144.483 144.474 138.015 144.475 130.037L144.488 14.461C144.488 12.6942 144.171 11.0017 143.59 9.43663L126.427 36.1295Z" fill="url(#paint2_linear_4_8697)"/>
<path d="M32.5216 36.1188L18.0747 36.1172L18.0668 108.352L32.5138 108.353L32.5216 36.1188Z" fill="black"/>
<path d="M79.4694 86.687L93.9164 86.6886L111.978 58.5992L111.973 108.361L126.42 108.363L126.427 36.1278L143.591 9.43494C142.087 5.37844 138.813 2.18134 134.708 0.780982L111.981 36.1262L86.6941 75.4513L61.4162 36.1208L46.9693 36.1192L46.9575 144.471L61.4045 144.473L61.4138 58.5937L79.4694 86.687Z" fill="black"/>
<defs>
<linearGradient id="paint0_linear_4_8697" x1="0.00348302" y1="152.491" x2="0.00088215" y2="176.517" gradientUnits="userSpaceOnUse">
<stop stop-color="#FF9165"/>
<stop offset="0.2" stop-color="#FF7842"/>
<stop offset="1" stop-color="#FF5F1F"/>
</linearGradient>
<linearGradient id="paint1_linear_4_8697" x1="67.3635" y1="0.00728995" x2="67.3479" y2="144.477" gradientUnits="userSpaceOnUse">
<stop stop-color="#FF9165"/>
<stop offset="0.2" stop-color="#FF7842"/>
<stop offset="1" stop-color="#FF5F1F"/>
</linearGradient>
<linearGradient id="paint2_linear_4_8697" x1="102.953" y1="9.43223" x2="102.939" y2="144.479" gradientUnits="userSpaceOnUse">
<stop stop-color="white"/>
<stop offset="1" stop-color="#D7D7D7"/>
</linearGradient>
</defs>
</svg>
